<svg xmlns="http://www.w3.org/2000/svg" id="a" width="22.9199" height="22.9199" viewBox="0 0 22.9199 22.9199"><defs><style>.b{fill:none;}.c{fill:#f0f0f0;}</style></defs><rect class="b" width="22.9199" height="22.9199"></rect><g><path class="c" d="M10.6199,6l-.84-2.76c-1.44,.24-2.76,.68-3.96,1.32-1.2,.6-2.2401,1.34-3.1201,2.22-.84,.88-1.5,1.88-1.98,3-.48,1.08-.72,2.22-.72,3.42,0,1,.18,1.9,.54,2.7,.4,.76,.9,1.42,1.5,1.98s1.3,1,2.1,1.3199c.8,.28,1.6201,.44,2.46,.48,.56-.08,1.1-.34,1.62-.78,.56-.44,1.04-.96,1.44-1.56,.4-.64,.66-1.32,.78-2.04,.16-.76,.14-1.5-.06-2.22-.8799-.28-1.72-.6-2.52-.96-.76-.4-1.4-.92-1.92-1.56-.08-1.08,.28-2,1.08-2.76,.84-.8,2.04-1.4,3.6-1.8Z"></path><path class="c" d="M20.1599,12.12c-.7599-.4-1.4-.92-1.92-1.56-.08-1.08,.28-2,1.08-2.76,.84-.8,2.04-1.4,3.6-1.8l-.84-2.76c-1.44,.24-2.76,.68-3.96,1.32-1.2,.6-2.24,1.34-3.12,2.22-.84,.88-1.5,1.88-1.98,3-.48,1.08-.72,2.22-.72,3.42,0,1,.18,1.9,.54,2.7,.4,.76,.9,1.42,1.5,1.98,.6,.56,1.3,1,2.1,1.3199,.8,.28,1.62,.44,2.46,.48,.56-.08,1.1-.34,1.62-.78,.56-.44,1.04-.96,1.44-1.56,.4-.64,.66-1.32,.78-2.04,.16-.76,.14-1.5-.06-2.22-.88-.28-1.72-.6-2.52-.96Z"></path></g></svg>